HIERARCHY
ROOT Hips
{
	OFFSET 0.000000 0.000000 0.000000
	CHANNELS 6 Xposition Yposition Zposition Zrotation Yrotation Xrotation 
	JOINT LHipJoint
	{
		OFFSET 0.000000 0.000000 0.000000
		CHANNELS 3 Zrotation Yrotation Xrotation
		JOINT LeftUpLeg
		{
			OFFSET 1.363060 -1.794630 0.839290
			CHANNELS 3 Zrotation Yrotation Xrotation
			JOINT LeftLeg
			{
				OFFSET 2.448110 -6.726130 0.000000
				CHANNELS 3 Zrotation Yrotation Xrotation
				JOINT LeftFoot
				{
					OFFSET 2.562200 -7.039590 0.000000
					CHANNELS 3 Zrotation Yrotation Xrotation
					JOINT LeftToeBase
					{
						OFFSET 0.157640 -0.433110 2.322550
						CHANNELS 3 Zrotation Yrotation Xrotation
						End Site
						{
							OFFSET 0.000000 0.000000 0.000000
						}
					}
				}
			}
		}
	}
	JOINT RHipJoint
	{
		OFFSET 0.000000 0.000000 0.000000
		CHANNELS 3 Zrotation Yrotation Xrotation
		JOINT RightUpLeg
		{
			OFFSET -1.305520 -1.794630 0.839290
			CHANNELS 3 Zrotation Yrotation Xrotation
			JOINT RightLeg
			{
				OFFSET -2.542530 -6.985550 0.000000
				CHANNELS 3 Zrotation Yrotation Xrotation
				JOINT RightFoot
				{
					OFFSET -2.568260 -7.056230 0.000000
					CHANNELS 3 Zrotation Yrotation Xrotation
					JOINT RightToeBase
					{
						OFFSET -0.164730 -0.452590 2.363150
						CHANNELS 3 Zrotation Yrotation Xrotation
						End Site
						{
							OFFSET 0.000000 0.000000 0.000000
						}
					}
				}
			}
		}
	}
	JOINT LowerBack
	{
		OFFSET 0.000000 0.000000 0.000000
		CHANNELS 3 Zrotation Yrotation Xrotation
		JOINT Spine
		{
			OFFSET 0.028270 2.035590 -0.193380
			CHANNELS 3 Zrotation Yrotation Xrotation
			JOINT Spine1
			{
				OFFSET 0.056720 2.048850 -0.042750
				CHANNELS 3 Zrotation Yrotation Xrotation
				JOINT Neck
				{
					OFFSET 0.000000 0.000000 0.000000
					CHANNELS 3 Zrotation Yrotation Xrotation
					JOINT Neck1
					{
						OFFSET -0.054170 1.746240 0.172020
						CHANNELS 3 Zrotation Yrotation Xrotation
						JOINT Head
						{
							OFFSET 0.104070 1.761360 -0.123970
							CHANNELS 3 Zrotation Yrotation Xrotation
							End Site
							{
								OFFSET 0.000000 0.000000 0.000000
							}
						}
					}
				}
				JOINT LeftShoulder
				{
					OFFSET 0.000000 0.000000 0.000000
					CHANNELS 3 Zrotation Yrotation Xrotation
					JOINT LeftArm
					{
						OFFSET 3.362410 1.200890 -0.311210
						CHANNELS 3 Zrotation Yrotation Xrotation
						JOINT LeftForeArm
						{
							OFFSET 4.983000 -0.000000 -0.000000
							CHANNELS 3 Zrotation Yrotation Xrotation
							JOINT LeftHand
							{
								OFFSET 3.483560 -0.000000 -0.000000
								CHANNELS 3 Zrotation Yrotation Xrotation
								JOINT LeftFingerBase
								{
									OFFSET 0.000000 0.000000 0.000000
									CHANNELS 3 Zrotation Yrotation Xrotation
									JOINT LeftHandIndex1
									{
										OFFSET 0.715260 -0.000000 -0.000000
										CHANNELS 3 Zrotation Yrotation Xrotation
										End Site
										{
											OFFSET 0.000000 0.000000 0.000000
										}
									}
								}
								JOINT LThumb
								{
									OFFSET 0.000000 0.000000 0.000000
									CHANNELS 3 Zrotation Yrotation Xrotation
									End Site
									{
										OFFSET 0.000000 0.000000 0.000000
									}
								}
							}
						}
					}
				}
				JOINT RightShoulder
				{
					OFFSET 0.000000 0.000000 0.000000
					CHANNELS 3 Zrotation Yrotation Xrotation
					JOINT RightArm
					{
						OFFSET -3.136600 1.374050 -0.404650
						CHANNELS 3 Zrotation Yrotation Xrotation
						JOINT RightForeArm
						{
							OFFSET -5.241900 -0.000000 -0.000000
							CHANNELS 3 Zrotation Yrotation Xrotation
							JOINT RightHand
							{
								OFFSET -3.444170 -0.000000 -0.000000
								CHANNELS 3 Zrotation Yrotation Xrotation
								JOINT RightFingerBase
								{
									OFFSET 0.000000 0.000000 0.000000
									CHANNELS 3 Zrotation Yrotation Xrotation
									JOINT RightHandIndex1
									{
										OFFSET -0.622530 -0.000000 -0.000000
										CHANNELS 3 Zrotation Yrotation Xrotation
										End Site
										{
											OFFSET 0.000000 0.000000 0.000000
										}
									}
								}
								JOINT RThumb
								{
									OFFSET 0.000000 0.000000 0.000000
									CHANNELS 3 Zrotation Yrotation Xrotation
									End Site
									{
										OFFSET 0.000000 0.000000 0.000000
									}
								}
							}
						}
					}
				}
			}
		}
	}
}
MOTION
Frames: 5
Frame Time: 0.008333
9.689568 23.897879 -0.263601 0.866258 -3.654227 -0.966733 -6.608911 -2.609525 1.659925 -17.422239 -3.221081 -2.056205 1.068746 10.907827 28.773125 1.565198 -4.764204 -13.748890 0.037800 1.254900 3.450300 4.412221 3.587167 -2.977606 11.499309 2.523470 -44.698152 -12.355441 -18.915308 67.226610 0.514256 -3.646488 3.541491 -0.160600 -2.582100 7.117500 -2.208617 -0.700830 13.716513 1.307984 -0.855893 -2.840104 4.912751 -0.553431 -1.869736 -7.985743 -1.736634 -13.449689 4.152643 -1.184518 15.335829 2.849800 -1.171400 11.619600 -0.366540 -1.740404 0.283098 -84.431598 2.803785 21.908614 22.713282 -34.995030 -7.699082 -0.288604 -0.036104 -5.209177 12.924416 27.356535 6.153800 -7.125000 0.000000 0.000000 -18.715900 56.948100 -5.614100 1.899337 1.599643 -0.412839 78.107773 -1.373669 18.489069 -19.134708 28.938397 -5.871325 0.477660 0.040117 -11.710110 -19.062805 9.622669 -3.406600 7.125000 0.000000 0.000000 5.301300 -19.767800 3.209600 
9.680751 23.884653 -0.128878 1.021179 -3.339790 -1.066380 -6.605426 -2.589449 1.715915 -17.611206 -3.076669 -1.447343 1.054835 10.883655 28.661926 1.604486 -4.929086 -13.973230 0.021100 0.938300 2.579000 4.449833 3.605276 -2.992083 11.593973 2.193905 -44.278235 -11.447657 -18.565993 64.393907 0.617715 -4.382051 4.975956 -0.081000 -1.835900 5.052300 -2.284495 -0.811275 13.404703 1.300968 -1.008733 -2.851924 4.887628 -0.635476 -1.782917 -7.960956 -1.737723 -13.270609 4.149848 -1.213006 15.471578 2.842600 -1.187300 11.644900 -0.370579 -1.715735 0.280961 -84.377320 2.952126 22.053295 22.863065 -35.153333 -7.772763 -0.274903 -0.016518 -4.723572 13.997133 25.709422 6.288400 -7.125000 0.000000 0.000000 -16.657600 55.573700 -4.411300 1.888146 1.563879 -0.425882 78.107596 -1.873248 18.658922 -19.157702 28.995382 -5.885542 0.510600 0.061971 -12.529132 -19.658168 9.372709 -3.432100 7.125000 0.000000 0.000000 4.847600 -19.999100 2.907700 
9.671215 23.864967 0.006767 0.921584 -2.895283 -1.208971 -6.601721 -2.558176 1.773839 -17.478539 -2.995756 -0.808305 1.058352 10.868853 28.587611 1.678434 -5.491862 -13.865712 0.048500 1.420700 3.907300 4.483995 3.621206 -3.001791 11.861845 1.791865 -43.698190 -10.499722 -18.153341 61.399007 0.687531 -5.057527 6.627720 -0.068500 -1.688000 4.644300 -2.159637 -0.955309 13.157813 1.361510 -1.169937 -2.847863 5.003119 -0.728396 -1.661825 -8.067609 -1.786120 -13.206210 4.155444 -1.259656 15.577829 2.863100 -1.222800 11.686900 -0.360050 -1.693904 0.280395 -84.447526 3.070211 22.873172 22.863913 -35.171059 -7.757690 -0.259696 0.008856 -6.354026 16.352086 23.356672 6.725000 -7.125000 0.000000 0.000000 -13.109900 53.686400 -2.837900 1.891729 1.530151 -0.435462 77.962315 -2.338432 18.829236 -19.265289 29.142837 -5.943551 0.549307 0.098473 -13.621504 -20.374670 8.905265 -3.390200 7.125000 0.000000 0.000000 4.295500 -20.464500 2.529600 
9.662706 23.831953 0.141695 0.969373 -2.481911 -1.382156 -6.593515 -2.539938 1.819782 -17.512200 -2.830774 -0.271092 1.090320 10.906365 28.675056 1.757292 -5.937566 -14.063095 0.038900 1.273000 3.500300 4.529844 3.640575 -3.005162 11.946482 1.350118 -43.054675 -9.562518 -17.684847 58.352678 0.735972 -5.789631 8.527348 -0.072400 -1.735700 4.775700 -2.157772 -1.093565 13.016109 1.377854 -1.347291 -2.850816 5.026956 -0.824870 -1.605671 -8.119613 -1.871721 -13.156974 4.205932 -1.376093 15.643573 2.895000 -1.277000 11.722100 -0.364801 -1.676175 0.279935 -84.449175 3.165571 23.782894 23.014643 -35.334808 -7.830154 -0.253831 0.018057 -8.418302 17.855227 22.119678 6.990900 -7.125000 0.000000 0.000000 -11.086600 52.701400 -2.122100 1.880688 1.510801 -0.442941 77.968406 -2.725162 18.526277 -19.313609 29.222873 -5.976902 0.556526 0.106262 -13.361719 -20.586387 8.718964 -3.354800 7.125000 0.000000 0.000000 4.134100 -20.657900 2.416000 
9.653375 23.795555 0.280518 0.950849 -2.205833 -1.536729 -6.583018 -2.529086 1.864991 -17.460884 -2.491733 0.149172 1.159695 11.007732 28.964133 1.843606 -6.210441 -14.612978 0.002200 0.302100 0.830000 4.588052 3.659590 -3.004580 12.060586 1.094705 -42.282875 -8.657037 -17.177657 55.330132 0.773795 -6.621908 10.470226 -0.161600 -2.590200 7.139700 -2.106894 -1.213463 12.827632 1.398040 -1.495111 -2.850640 5.012382 -0.905247 -1.529877 -8.033628 -1.874827 -13.064714 4.148268 -1.412347 15.709710 2.839000 -1.291100 11.727700 -0.358908 -1.662307 0.283307 -84.425529 3.092294 23.101965 23.490768 -35.821061 -8.121828 -0.277623 -0.025755 -4.748233 13.165982 26.401642 6.061500 -7.125000 0.000000 0.000000 -17.896800 56.081900 -4.977900 1.882934 1.481171 -0.452004 77.980769 -3.089392 18.103422 -19.306792 29.248388 -5.985745 0.550453 0.083555 -12.476914 -20.630632 9.097555 -3.509700 7.125000 0.000000 0.000000 4.115600 -20.239500 2.444000 
